<!--?xml version="1.0" standalone="no"?-->
              <svg id="sw-js-blob-svg" viewBox="0 0 100 100" xmlns="http://www.w3.org/2000/svg" version="1.1">
                    <defs> 
                        <linearGradient id="sw-gradient" x1="0" x2="1" y1="1" y2="0">
                            <stop id="stop1" stop-color="rgba(230.88, 177.356, 220.984, 1)" offset="0%"></stop>
                            <stop id="stop2" stop-color="rgba(165.067, 58.769, 152.614, 1)" offset="100%"></stop>
                        </linearGradient>
                    </defs>
                <path fill="url(#sw-gradient)" d="M20.2,-35.3C26.4,-31.5,31.8,-26.4,36.6,-20.4C41.4,-14.3,45.6,-7.1,45.9,0.2C46.2,7.5,42.5,14.9,37.3,20.4C32.2,25.9,25.6,29.5,19.2,33.7C12.7,38,6.4,43,-0.9,44.6C-8.3,46.2,-16.5,44.5,-22.7,40.2C-29,35.8,-33.2,28.7,-35.4,21.6C-37.6,14.4,-37.7,7.2,-37.3,0.3C-36.8,-6.7,-35.8,-13.4,-33.3,-20C-30.8,-26.6,-26.8,-33.1,-21.1,-37.2C-15.3,-41.2,-7.6,-42.8,-0.3,-42.3C7,-41.8,14,-39.1,20.2,-35.3Z" width="100%" height="100%" transform="translate(50 50)" stroke-width="0" style="transition: all 0.3s ease 0s;"></path>
              </svg>