<!--?xml version="1.0" standalone="no"?-->
              <svg id="sw-js-blob-svg" viewBox="0 0 100 100" xmlns="http://www.w3.org/2000/svg" version="1.1">
                    <defs> 
                        <linearGradient id="sw-gradient" x1="0" x2="1" y1="1" y2="0">
                            <stop id="stop1" stop-color="rgba(61.23, 15.505, 83.067, 1)" offset="0%"></stop>
                            <stop id="stop2" stop-color="rgba(150.626, 47.877, 192.46, 1)" offset="100%"></stop>
                        </linearGradient>
                    </defs>
                <path fill="url(#sw-gradient)" d="M22.7,-27.5C30.4,-20.6,38.3,-14.4,40.2,-6.6C42.1,1.1,38,10.4,32.2,16.7C26.3,23.1,18.6,26.6,10.5,30.1C2.4,33.6,-6.2,37.1,-14.6,35.9C-22.9,34.7,-31.1,28.7,-35.3,20.7C-39.5,12.7,-39.8,2.8,-38.4,-7C-37,-16.9,-33.8,-26.7,-27.1,-33.7C-20.4,-40.8,-10.2,-45.2,-1.3,-43.5C7.5,-41.9,15,-34.4,22.7,-27.5Z" width="100%" height="100%" transform="translate(50 50)" stroke-width="0" style="transition: all 0.3s ease 0s;" stroke="url(#sw-gradient)"></path>
              </svg>