<svg id="visual" viewBox="0 0 900 600" width="900" height="600" xmlns="http://www.w3.org/2000/svg" xmlns:xlink="http://www.w3.org/1999/xlink" version="1.1"><rect x="0" y="0" width="900" height="600" fill="#f8f7fc"></rect><path d="M0 520L16.7 519.5C33.3 519 66.7 518 100 524.7C133.3 531.3 166.7 545.7 200 550.5C233.3 555.3 266.7 550.7 300 542.7C333.3 534.7 366.7 523.3 400 518.2C433.3 513 466.7 514 500 515.8C533.3 517.7 566.7 520.3 600 526.8C633.3 533.3 666.7 543.7 700 543C733.3 542.3 766.7 530.7 800 528C833.3 525.3 866.7 531.7 883.3 534.8L900 538L900 601L883.3 601C866.7 601 833.3 601 800 601C766.7 601 733.3 601 700 601C666.7 601 633.3 601 600 601C566.7 601 533.3 601 500 601C466.7 601 433.3 601 400 601C366.7 601 333.3 601 300 601C266.7 601 233.3 601 200 601C166.7 601 133.3 601 100 601C66.7 601 33.3 601 16.7 601L0 601Z" fill="#5a3de1" stroke-linecap="round" stroke-linejoin="miter"></path></svg>